<svg width="24" height="25" viewBox="0 0 24 25" fill="none" xmlns="http://www.w3.org/2000/svg">
<g clip-path="url(#clip0_2_311)">
<path d="M11 11.77V7.75592H13V11.77H17V13.7771H13V17.7911H11V13.7771H7V11.77H11ZM12 22.8088C6.477 22.8088 2 18.316 2 12.7735C2 7.23108 6.477 2.73831 12 2.73831C17.523 2.73831 22 7.23108 22 12.7735C22 18.316 17.523 22.8088 12 22.8088ZM12 20.8017C14.1217 20.8017 16.1566 19.9559 17.6569 18.4503C19.1571 16.9447 20 14.9027 20 12.7735C20 10.6443 19.1571 8.60233 17.6569 7.09676C16.1566 5.59118 14.1217 4.74536 12 4.74536C9.87827 4.74536 7.84344 5.59118 6.34315 7.09676C4.84285 8.60233 4 10.6443 4 12.7735C4 14.9027 4.84285 16.9447 6.34315 18.4503C7.84344 19.9559 9.87827 20.8017 12 20.8017Z" fill="white"/>
</g>
<defs>
<clipPath id="clip0_2_311">
<rect width="24" height="24.0845" fill="white" transform="translate(0 0.731262)"/>
</clipPath>
</defs>
</svg>
